# xmcd
#
# Track frame offsets:
# 150
# 14742
# 27175
# 41895
# 64354
# 77540
# 94060
# 112692
# 130276
# 145072
# 159788
# 173138
# 191817
# 205052
# 215671
# 228673
# 242654
# 258869
# 281488
# 297348
# 310359
# 324603
#
# Disc length: 4515 seconds
#
#
# Revision: 0
# Processed by: cddbd v1.5.2PL0 Copyright (c) Steve Scherf et al.
# Submitted via: FreeRIP 2.944 
#
DISCID=4111a116
DTITLE=Só Forró - Forró Especial
DYEAR=1900
DGENRE=Folklore
TTITLE0=A Moda da Mulher - Amazan
TTITLE1=Meu Cheiro - Matruz com Leite
TTITLE2=Adeus Mariana - Robério
TTITLE3=Gabiroba - Robério
TTITLE4=Melô do bêbado - Forró Viva Noite
TTITLE5=Brincar de Solidão - Mastruz com Leite
TTITLE6=Amor de São João - Paratodos
TTITLE7=Que nem o doce do tacho - Petrúcio
TTITLE8=Dominadora do Xote - Paratodos
TTITLE9=Pé de molambo - Banda aquários
TTITLE10=Amor Zodiacal - Cavalo de Pau
TTITLE11=O Ricão do Cabaré - Amazan
TTITLE12=Corococó - Meu Xodó
TTITLE13=Morena Linda - Ademir
TTITLE14=Quando a gente se casa - João Bandeira
TTITLE15=Jeito de sereia - Amazan
TTITLE16=Namoro Novo - Robério
TTITLE17=Caia por sima de mim- Robério
TTITLE18=Amor pela metade - Banda Aquários
TTITLE19=Xxote do Tremendão - Fruto Sensual
TTITLE20=Vadiar com Rubi - Ademir
TTITLE21=Xote Galinhada - Chitãozinho
EXTD=
EXTT0=
EXTT1=
EXTT2=
EXTT3=
EXTT4=
EXTT5=
EXTT6=
EXTT7=
EXTT8=
EXTT9=
EXTT10=
EXTT11=
EXTT12=
EXTT13=
EXTT14=
EXTT15=
EXTT16=
EXTT17=
EXTT18=
EXTT19=
EXTT20=
EXTT21=
PLAYORDER=
